<?xml version="1.0" ?><svg viewBox="0 0 64 64" xmlns="http://www.w3.org/2000/svg"><title/><g id="Statistic"><path d="M61,35H47a1,1,0,0,0-1,1V60H40V19a1,1,0,0,0-1-1H25a1,1,0,0,0-1,1V60H18V32a1,1,0,0,0-1-1H3a1,1,0,0,0-1,1V61a1,1,0,0,0,1,1H61a1,1,0,0,0,1-1V36A1,1,0,0,0,61,35ZM4,60V33H16V60Zm22,0V20H38V60Zm22,0V37H60V60Z"/><path d="M10,27a5.9834,5.9834,0,0,0,5.6486-8.0038l11.6771-7.2433a5.9807,5.9807,0,0,0,8.8335.562l12.4925,9.98a6.013,6.013,0,1,0,1.1891-1.61l-12.4925-9.98a6.0013,6.0013,0,1,0-10.9969-.7015L14.6743,17.2471A5.9977,5.9977,0,1,0,10,27Zm44-6a4,4,0,1,1-4,4A4.0045,4.0045,0,0,1,54,21ZM32,4a4,4,0,1,1-4,4A4.0045,4.0045,0,0,1,32,4ZM10,17a4,4,0,1,1-4,4A4.0045,4.0045,0,0,1,10,17Z"/></g></svg>